<?xml version="1.0" standalone="no"?>
<!DOCTYPE svg PUBLIC "-//W3C//DTD SVG 20010904//EN"
 "http://www.w3.org/TR/2001/REC-SVG-20010904/DTD/svg10.dtd">
<svg version="1.0" xmlns="http://www.w3.org/2000/svg"
 width="512.000000pt" height="512.000000pt" viewBox="0 0 512.000000 512.000000"
 preserveAspectRatio="xMidYMid meet">
<metadata>
Created by potrace 1.14, written by Peter Selinger 2001-2017
</metadata>
<g transform="translate(0.000000,512.000000) scale(0.100000,-0.100000)"
fill="#000000" stroke="none">
<path d="M1609 4136 c-2 -2 -27 -6 -55 -10 -67 -8 -195 -50 -266 -88 -192
-102 -345 -314 -393 -543 -3 -16 -8 -293 -11 -615 -10 -1246 -8 -1170 -31
-1220 -28 -61 -64 -106 -110 -140 -66 -48 -109 -55 -358 -61 -55 -1 -103 -4
-107 -6 -5 -2 2 -23 15 -46 121 -224 325 -375 557 -414 55 -10 240 -10 295 -1
144 24 310 103 420 201 l40 35 45 -42 c139 -129 304 -195 505 -201 158 -5 295
24 426 90 51 26 150 94 184 127 l29 28 41 -38 c153 -146 333 -212 557 -207
119 3 140 6 228 31 254 73 492 295 574 536 26 77 26 90 25 418 0 173 -1 536
-2 805 l-2 490 28 53 c38 72 86 123 144 152 45 24 60 25 253 30 l205 5 -3 24
c-5 47 -75 207 -121 276 -142 216 -338 323 -606 330 -239 7 -430 -56 -583
-191 l-58 -52 -45 42 c-94 89 -203 151 -324 182 -73 18 -279 25 -361 12 -161
-27 -307 -96 -420 -200 l-41 -37 -34 35 c-90 94 -230 168 -374 199 -32 7 -260
16 -266 11z m464 -1123 c-2 -263 -5 -665 -6 -893 l-4 -415 -26 -56 c-46 -96
-131 -165 -218 -176 l-38 -5 24 58 c13 33 27 75 31 94 4 19 6 231 5 470 -2
239 -4 599 -4 800 l-2 365 26 55 c32 67 90 132 144 159 78 41 72 78 68 -456z
m1201 465 c-8 -12 -11 -236 -17 -1219 l-4 -556 -29 -58 c-48 -96 -119 -152
-216 -174 -43 -10 -43 -10 -23 29 8 16 22 55 31 87 16 61 16 4 11 1263 l-2
405 26 55 c34 73 81 125 138 155 50 26 97 33 85 13z"/>
</g>
</svg>
